<?xml version="1.0" encoding="UTF-8"?>
<svg xmlns="http://www.w3.org/2000/svg" viewBox="0 0 24 24" width="24" height="24">
  <path d="M11.99 2C6.47 2 2 6.48 2 12s4.47 10 9.99 10C17.52 22 22 17.52 22 12S17.52 2 11.99 2zm6.93 6h-2.95c-.32-1.25-.78-2.45-1.38-3.56 1.84.63 3.37 1.91 4.33 3.56zM12 4c.69 1.19 1.24 2.45 1.63 3.76h-3.26C10.76 6.45 11.31 5.19 12 4zm-2.59.44c-.6 1.11-1.06 2.31-1.38 3.56H5.08c.96-1.65 2.49-2.93 4.33-3.56zM5.08 14c-.58-1.23-.9-2.6-.9-4s.32-2.77.9-4h3.82c-.24 1.29-.38 2.63-.38 4s.14 2.71.38 4H5.08zm2.95 2c.32 1.25.78 2.45 1.38 3.56-1.84-.63-3.37-1.9-4.33-3.56h2.95zm3.97 4c-.69-1.19-1.24-2.45-1.63-3.76h3.26c-.39 1.31-.94 2.57-1.63 3.76zm2.59-.44c.6-1.11 1.06-2.31 1.38-3.56h2.95c-.96 1.65-2.49 2.93-4.33 3.56zM16.36 14c.24-1.29.38-2.63.38-4s-.14-2.71-.38-4h3.82c.58 1.23.9 2.6.9 4s-.32 2.77-.9 4h-3.82z" fill="#4285F4"/>
  <path d="M12 8v3h4.24c-.24 1.29-.88 2.3-1.82 2.97v2.03h2.95c1.73-1.57 2.72-3.88 2.72-6.63 0-.63-.06-1.25-.16-1.85H12z" fill="#34A853"/>
  <path d="M5.08 14h2.95c.32 1.25.78 2.45 1.38 3.56-1.84-.63-3.37-1.9-4.33-3.56zm2.95-6H5.08c.96-1.65 2.49-2.93 4.33-3.56C8.81 5.55 8.35 6.75 8.03 8z" fill="#FBBC05"/>
  <path d="M12 19c-3.87 0-7-3.13-7-7s3.13-7 7-7c1.93 0 3.68.78 4.95 2.05l-2.23 2.23C13.95 8.51 13.02 8 12 8c-2.21 0-4 1.79-4 4s1.79 4 4 4c1.49 0 2.75-.81 3.45-1.99l-2.45-1.84v-.02h4.24c.16.6.24 1.22.24 1.85 0 4.41-3.59 8-8 8z" fill="#EA4335"/>
</svg> 