<?xml version="1.0" encoding="UTF-8"?>
<svg width="24px" height="24px" viewBox="0 0 24 24" version="1.1" xmlns="http://www.w3.org/2000/svg">
    <g stroke="none" stroke-width="1" fill="none" fill-rule="evenodd">
        <path d="M12.545,4.239 C14.545,4.239 16.045,4.972 17.045,6.239 C18.045,7.506 18.545,9.239 18.545,11.239 C18.545,13.239 18.045,14.972 17.045,16.239 C16.045,17.506 14.545,18.239 12.545,18.239 C10.545,18.239 9.045,17.506 8.045,16.239 C7.045,14.972 6.545,13.239 6.545,11.239 C6.545,9.239 7.045,7.506 8.045,6.239 C9.045,4.972 10.545,4.239 12.545,4.239 Z" fill="#4285F4"></path>
        <path d="M12.545,10.239 L12.545,13.972 L18.545,13.972 C18.265,15.229 17.545,16.239 16.545,16.972 C15.545,17.705 14.545,18.072 13.545,18.072 C12.545,18.072 11.545,17.705 10.545,16.972 C9.545,16.239 8.825,15.229 8.545,13.972 L12.545,10.239 Z" fill="#34A853"></path>
        <path d="M4.545,11.239 C4.545,13.239 5.045,14.972 6.045,16.239 C7.045,17.506 8.545,18.239 10.545,18.239 C11.545,18.239 12.545,17.972 13.545,17.239 L9.545,13.972 C8.825,15.229 8.105,16.239 7.045,16.972 C6.045,17.705 5.045,18.072 4.045,18.072 C3.045,18.072 2.045,17.705 1.045,16.972 C0.045,16.239 -0.455,15.239 -0.455,13.972 L4.545,11.239 Z" fill="#FBBC05"></path>
        <path d="M12.545,4.239 C14.545,4.239 16.045,4.972 17.045,6.239 C18.045,7.506 18.545,9.239 18.545,11.239 C18.545,13.239 18.045,14.972 17.045,16.239 C16.045,17.506 14.545,18.239 12.545,18.239 C11.545,18.239 10.545,17.972 9.545,17.239 L13.545,13.972 C14.265,15.229 14.985,16.239 16.045,16.972 C17.045,17.705 18.045,18.072 19.045,18.072 C20.045,18.072 21.045,17.705 22.045,16.972 C23.045,16.239 23.545,15.239 23.545,13.972 L19.545,11.239 C19.545,9.239 19.045,7.506 18.045,6.239 C17.045,4.972 15.545,4.239 13.545,4.239 L12.545,4.239 Z" fill="#EA4335"></path>
    </g>
</svg> 